# xmcd
#
# Track frame offsets:
#	150
#	11861
#	22813
#	38781
#	47791
#	59061
#	73620
#	84657
#	94965
#	108720
#	123540
#	135344
#	144329
#	157648
#
# Disc length: 2236 seconds
#
# Revision: 0
# Processed by: cddbd v1.4PL0 Copyright (c) Steve Scherf et al.
# Submitted via: audiograbber 1.82.02
#
DISCID=bc08ba0e
DTITLE=Buddy Davis - When the Storms of Life Awaken...SOAR
DYEAR=2002
DGENRE=Christian Country
TTITLE0=Soar
TTITLE1=It's God
TTITLE2=I Believe in the One Who Was There
TTITLE3=There's No Doubt
TTITLE4=The Fountain of Youth
TTITLE5=Preach Like Dave, Sing Like John
TTITLE6=I'd Like to Be What I'm Not
TTITLE7=The Bible Is a Gold Mine
TTITLE8=They Threw Daniel in the Lion's Den
TTITLE9=Heaven's As Pretty
TTITLE10=Samson's Ticked
TTITLE11=God Did Not Make You to Watch You Lose
TTITLE12=Gus
TTITLE13=You're My Praise
EXTD=
EXTT0=
EXTT1=
EXTT2=
EXTT3=
EXTT4=
EXTT5=
EXTT6=
EXTT7=
EXTT8=
EXTT9=
EXTT10=
EXTT11=
EXTT12=
EXTT13=
PLAYORDER=
